<svg height="487pt" viewBox="-1 0 487 487.62844" width="487pt" xmlns="http://www.w3.org/2000/svg"><path d="m478.265625 301.714844-11.921875-73.691406c-.085938.003906-.164062.023437-.25.023437h-23.125c-28.554688 0-53.070312-17.269531-63.683594-41.9375-12.425781 16.875-32.417968 27.828125-54.976562 27.828125h-119.355469l-14.179687 87.644531-.035157.128907c-2.71875 10.230468-4.09375 20.753906-4.09375 31.316406v.003906c0 25.917969 21.6875 46.925781 48.4375 46.925781h198.84375c26.75 0 48.433594-21.007812 48.433594-46.925781v-.003906c0-10.558594-1.375-21.082032-4.09375-31.3125zm0 0" fill="#4671c6"/><path d="m433.925781 383.960938h-198.84375c-28.910156 0-52.4375-22.84375-52.4375-50.925782 0-10.882812 1.417969-21.75 4.210938-32.289062l14.148437-87.449219c.3125-1.9375 1.984375-3.363281 3.949219-3.363281h119.355469c20.328125 0 39.675781-9.792969 51.757812-26.195313.847656-1.152343 2.246094-1.765625 3.675782-1.605469 1.425781.164063 2.652343 1.078126 3.21875 2.394532 10.328124 24.003906 33.882812 39.515625 60.007812 39.515625h22.921875c.101563-.007813.207031-.015625.3125-.019531 1.976563-.066407 3.765625 1.367187 4.089844 3.359374l11.890625 73.496094c2.769531 10.496094 4.175781 21.3125 4.175781 32.148438 0 28.085937-23.523437 50.933594-52.433594 50.933594zm-225.566406-166.023438-13.636719 84.285156c-.019531.128906-.046875.257813-.082031.382813-2.660156 10.027343-3.992187 20.21875-3.992187 30.425781 0 23.671875 19.933593 42.929688 44.4375 42.929688h198.839843c24.503907 0 44.4375-19.253907 44.4375-42.925782 0-10.210937-1.332031-20.402344-3.960937-30.292968-.035156-.128907-.058594-.253907-.082032-.386719l-11.375-70.304688h-19.976562c-27.148438 0-51.824219-14.925781-64.535156-38.523437-13.640625 15.390625-33.429688 24.410156-54.125 24.410156zm0 0" fill="#3762cc"/><path d="m404.652344 391.996094h-11.324219l-3.507813-.828125c-3.394531-.800781-5.796874-3.832031-5.796874-7.324219v-14.699219c-14.820313 7.71875-31.65625 12.09375-49.519532 12.09375-17.867187 0-34.707031-4.375-49.523437-12.09375v15.429688c0 3.171875-1.992188 6.003906-4.976563 7.078125l-.300781.109375c-.285156.101562-.585937.167969-.882813.234375h-10.878906c-37.398437 0-67.714844 30.3125-67.714844 67.714844v23.914062h272.144532v-23.914062c-.003906-37.398438-30.320313-67.714844-67.71875-67.714844zm0 0" fill="#f9cfcf"/><path d="m429.503906 483.628906h-190v-39.285156c0-6.007812 4.867188-10.875 10.871094-10.875h168.25c6.007812 0 10.875 4.867188 10.875 10.875v39.285156zm0 0" fill="#e0ebfc"/><path d="m210.3125 424.160156 7.070312 6.714844c3.210938 3.050781 7.789063 4.191406 12.054688 3l9.707031-2.707031c3.777344-1.054688 6.847657-3.808594 8.304688-7.453125l5.042969-12.613282c1.066406-2.65625 1.191406-5.597656.359374-8.339843l-2.566406-8.421875c-16.8125 4.527344-31.03125 15.363281-39.972656 29.820312zm0 0" fill="#eaa97d"/><path d="m280.460938 397.742188c1.484374-1.277344 2.335937-3.136719 2.335937-5.089844 0-.839844-.15625-1.644532-.441406-2.390625-.683594.589843-1.46875 1.074219-2.347657 1.394531l-.300781.105469c-.289062.105469-.585937.171875-.886719.234375h-10.875c-3.066406 0-6.074218.222656-9.027343.617187-.890625 2.382813-.382813 5.121094 1.449219 7.007813l1.144531 1.183594c1.265625 1.304687 3.003906 2.042968 4.820312 2.042968h5.699219c1.605469 0 3.160156-.578125 4.375-1.625zm0 0" fill="#eaa97d"/><path d="m472.371094 487.628906h-272.140625c-2.207031 0-4-1.792968-4-4v-23.917968c0-39.542969 32.171875-71.714844 71.714843-71.714844h10.410157l.292969-.105469c1.394531-.503906 2.332031-1.835937 2.332031-3.316406v-15.425781c0-1.398438.730469-2.695313 1.925781-3.421876 1.195312-.722656 2.683594-.773437 3.921875-.125 14.832031 7.722657 30.875 11.640626 47.675781 11.640626 16.796875 0 32.839844-3.917969 47.675782-11.640626 1.238281-.648437 2.726562-.597656 3.921874.125 1.195313.726563 1.925782 2.023438 1.925782 3.421876v14.699218c0 1.640625 1.117187 3.050782 2.710937 3.429688l3.054688.71875h10.859375c39.542968 0 71.714844 32.171875 71.714844 71.714844v23.917968c.003906 2.207032-1.789063 4-3.996094 4zm-268.144532-8h264.140626v-19.917968c0-35.128907-28.582032-63.714844-63.714844-63.714844h-11.324219c-.308594 0-.617187-.035156-.917969-.105469l-3.507812-.828125c-5.226563-1.234375-8.875-5.847656-8.875-11.214844v-8.324218c-14.246094 6.371093-29.855469 9.71875-45.523438 9.71875-15.671875 0-31.28125-3.347657-45.523437-9.71875v9.050781c0 4.84375-3.0625 9.203125-7.621094 10.84375l-.300781.105469c-.445313.164062-.90625.273437-1.367188.378906-.285156.058594-.582031.09375-.871094.09375h-10.878906c-35.132812 0-63.714844 28.585937-63.714844 63.714844zm0 0" fill="#3762cc"/><path d="m442.648438 232.894531c-.230469 0-.453126.03125-.679688.035157v-10.15625c0-59.351563-48.113281-107.464844-107.464844-107.464844-59.355468 0-107.46875 48.113281-107.46875 107.464844v10.15625c-.226562-.003907-.449218-.035157-.679687-.035157-18.105469 0-32.785157 14.679688-32.785157 32.785157 0 18.109374 14.679688 32.785156 32.785157 32.785156 1.191406 0 2.363281-.070313 3.519531-.191406 11.089844 47.539062 53.707031 82.96875 104.628906 82.96875 50.917969 0 93.535156-35.425782 104.625-82.96875 1.15625.121093 2.328125.191406 3.519532.191406 18.109374 0 32.785156-14.675782 32.785156-32.785156 0-18.105469-14.675782-32.785157-32.785156-32.785157zm0 0" fill="#f9cfcf"/><path d="m334.503906 385.242188c-50.949218 0-94.761718-33.867188-107.707031-82.78125-.148437.003906-.292969.003906-.441406.003906-20.285157 0-36.785157-16.503906-36.785157-36.785156 0-19.167969 14.730469-34.957032 33.464844-36.640626v-6.265624c0-61.464844 50.003906-111.46875 111.464844-111.46875s111.464844 50.003906 111.464844 111.46875v6.265624c18.734375 1.683594 33.464844 17.472657 33.464844 36.640626 0 20.429687-16.699219 37.09375-37.226563 36.78125-12.9375 48.914062-56.753906 82.78125-107.699219 82.78125zm-104.625-90.96875c1.835938 0 3.464844 1.265624 3.890625 3.089843 10.96875 47.03125 52.390625 79.878907 100.730469 79.878907s89.765625-32.847657 100.734375-79.878907c.457031-1.96875 2.304687-3.289062 4.316406-3.070312 1.085938.117187 2.097657.171875 3.09375.171875 15.875 0 28.789063-12.914063 28.789063-28.785156 0-15.867188-12.898438-28.773438-28.761719-28.785157-.285156.019531-.453125.03125-.621094.035157-.027343 0-.058593 0-.085937 0-1.042969 0-2.046875-.410157-2.796875-1.144532-.769531-.75-1.203125-1.78125-1.203125-2.855468v-10.15625c0-57.050782-46.414063-103.464844-103.464844-103.464844s-103.464844 46.414062-103.464844 103.464844v10.15625c0 1.074218-.433594 2.105468-1.199218 2.855468-.773438.753906-1.859376 1.15625-2.886719 1.140625-.167969-.003906-.335938-.011719-.503907-.023437-.003906 0-.011718 0-.015624 0-15.957032 0-28.859376 12.90625-28.859376 28.777344 0 15.871093 12.910157 28.785156 28.785157 28.785156.996093 0 2.007812-.054688 3.09375-.171875.148437-.015625.285156-.019531.429687-.019531zm0 0" fill="#3762cc"/><path d="m282.796875 277.273438c-6.035156 0-10.929687-4.894532-10.929687-10.929688v-18.214844c0-6.035156 4.894531-10.925781 10.929687-10.925781s10.925781 4.890625 10.925781 10.925781v18.214844c0 6.035156-4.890625 10.929688-10.925781 10.929688zm0 0" fill="#3762cc"/><path d="m386.210938 277.273438c-6.035157 0-10.929688-4.894532-10.929688-10.929688v-18.214844c0-6.035156 4.894531-10.925781 10.929688-10.925781 6.035156 0 10.925781 4.890625 10.925781 10.925781v18.214844c0 6.035156-4.890625 10.929688-10.925781 10.929688zm0 0" fill="#3762cc"/><path d="m357.917969 330.03125c-2.207031 0-4-1.792969-4-4 0-6.292969-8.890625-11.609375-19.414063-11.609375-10.527344 0-19.417968 5.316406-19.417968 11.609375 0 2.207031-1.792969 4-4 4-2.207032 0-4-1.792969-4-4 0-10.996094 12.042968-19.609375 27.417968-19.609375 15.371094 0 27.414063 8.613281 27.414063 19.609375 0 2.210938-1.789063 4-4 4zm0 0" fill="#3762cc"/><path d="m385.484375 91.546875h-11.824219v1.328125c-12.425781-13.015625-29.933594-21.140625-49.351562-21.140625h-21.417969c-57.953125 0-104.9375 46.980469-104.9375 104.9375v34.273437c0 1.652344 1.335937 2.992188 2.988281 2.992188h123.367188c22.558594 0 42.554687-10.953125 54.976562-27.828125 10.613282 24.664063 35.125 41.9375 63.683594 41.9375h23.125c3.179688 0 5.757812-2.578125 5.757812-5.757813v-44.371093c.003907-47.703125-38.664062-86.371094-86.367187-86.371094zm0 0" fill="#4671c6"/><path d="m466.097656 232.046875h-23.128906c-27.148438 0-51.824219-14.925781-64.535156-38.523437-13.640625 15.390624-33.429688 24.414062-54.125 24.414062h-123.367188c-3.851562 0-6.988281-3.136719-6.988281-6.992188v-34.269531c0-60.070312 48.867187-108.941406 108.9375-108.941406h21.417969c18.707031 0 36.207031 7.007813 49.675781 19.8125h11.5c49.828125 0 90.371094 40.542969 90.371094 90.371094v44.371093c0 5.382813-4.378907 9.757813-9.757813 9.757813zm-86.808594-49.933594c.148438 0 .300782.007813.453126.023438 1.425781.164062 2.652343 1.078125 3.21875 2.394531 10.332031 24.003906 33.886718 39.515625 60.007812 39.515625h23.128906c.964844 0 1.757813-.785156 1.757813-1.757813v-44.371093c0-45.417969-36.953125-82.371094-82.371094-82.371094h-8.847656c-.402344.449219-.90625.808594-1.488281 1.042969-1.515626.609375-3.25.230468-4.378907-.953125-12.25-12.835938-28.75-19.902344-46.457031-19.902344h-21.417969c-55.660156 0-100.941406 45.28125-100.941406 100.9375v33.265625h122.359375c20.328125 0 39.675781-9.792969 51.753906-26.199219.757813-1.027343 1.960938-1.625 3.222656-1.625zm0 0" fill="#3762cc"/><path d="m187.640625 121.210938c0-36.503907-29.582031-66.097657-66.070313-66.097657-36.488281 0-66.066406 29.59375-66.066406 66.097657 0 36.503906 29.578125 66.09375 66.066406 66.09375 36.488282 0 66.070313-29.589844 66.070313-66.09375zm0 0" fill="#ffea92"/><path d="m44.296875 206.457031c-1.992187 0-3.902344-.738281-5.378906-2.078125-1.589844-1.441406-2.496094-3.445312-2.550781-5.652344-.058594-2.289062.835937-4.527343 2.449218-6.140624l14.164063-14.167969c1.480469-1.480469 3.453125-2.296875 5.546875-2.296875 2.128906 0 4.136718.835937 5.652344 2.351562l.117187.121094c3.070313 3.070312 3.089844 8.089844.015625 11.160156l-14.347656 14.351563c-1.515625 1.515625-3.527344 2.351562-5.667969 2.351562zm0 0" fill="#ffea92"/><path d="m121.570312 238.433594c-.253906 0-.515624-.011719-.777343-.039063-4.058594-.382812-7.234375-3.980469-7.234375-8.183593v-20.015626c0-4.34375 3.566406-7.878906 7.953125-7.878906 2.226562 0 4.214843.804688 5.714843 2.273438 1.519532 1.488281 2.359376 3.480468 2.359376 5.605468v20.226563c0 4.417969-3.597657 8.011719-8.015626 8.011719zm0 0" fill="#ffea92"/><path d="m198.757812 206.449219c-2.140624 0-4.152343-.832031-5.667968-2.347657l-14.304688-14.308593c-1.503906-1.503907-2.316406-3.503907-2.296875-5.628907.019531-2.097656.855469-4.074218 2.347657-5.566406l.121093-.121094c1.484375-1.484374 3.484375-2.316406 5.613281-2.316406 2.097657 0 4.066407.8125 5.550782 2.296875l14.113281 14.125c1.617187 1.613281 2.507813 3.851563 2.453125 6.140625-.054688 2.203125-.960938 4.210938-2.554688 5.652344-1.472656 1.335938-3.382812 2.074219-5.375 2.074219zm0 0" fill="#ffea92"/><path d="m210.523438 129.238281c-2.09375 0-4.066407-.816406-5.546876-2.300781-1.507812-1.503906-2.332031-3.515625-2.332031-5.664062 0-2.21875.804688-4.207032 2.273438-5.703126 1.484375-1.523437 3.476562-2.363281 5.605469-2.363281h20c4.203124 0 7.796874 3.179688 8.183593 7.238281.21875 2.253907-.53125 4.503907-2.046875 6.167969-1.515625 1.667969-3.675781 2.625-5.929687 2.625zm0 0" fill="#ffea92"/><path d="m184.582031 66.269531c-2.128906 0-4.132812-.835937-5.644531-2.347656l-.121094-.121094c-1.460937-1.464843-2.296875-3.441406-2.316406-5.539062-.019531-2.125.796875-4.125 2.296875-5.628907l14.296875-14.300781c1.511719-1.511719 3.527344-2.347656 5.667969-2.347656 2.265625 0 4.4375.96875 5.957031 2.65625 2.851562 3.164063 2.640625 8.09375-.488281 11.21875l-14.101563 14.109375c-1.480468 1.484375-3.453125 2.300781-5.546875 2.300781zm0 0" fill="#ffea92"/><path d="m121.625 40.105469c-4.5 0-8.066406-3.535157-8.066406-7.882813v-20.207031c0-4.417969 3.59375-8.015625 8.011718-8.015625.257813 0 .519532.011719.78125.039062 4.054688.386719 7.234376 3.984376 7.234376 8.183594v20c0 2.128906-.835938 4.121094-2.359376 5.609375-1.5 1.464844-3.488281 2.273438-5.597656 2.273438zm0 0" fill="#ffea92"/><path d="m12.324219 129.238281c-2.25 0-4.414063-.957031-5.929688-2.625-1.511719-1.667969-2.257812-3.917969-2.042969-6.167969.386719-4.058593 3.984376-7.238281 8.183594-7.238281h20.085938c2.128906 0 4.121094.835938 5.609375 2.363281 1.464843 1.496094 2.273437 3.484376 2.269531 5.597657.003906 2.21875-.804688 4.207031-2.269531 5.707031-1.488281 1.519531-3.480469 2.363281-5.609375 2.363281zm0 0" fill="#ffea92"/><path d="m58.519531 66.3125c-2.097656 0-4.066406-.8125-5.550781-2.296875l-14.335938-14.34375c-1.707031-1.707031-2.546874-4.066406-2.308593-6.46875.242187-2.40625 1.546875-4.558594 3.582031-5.910156 1.273438-.84375 2.769531-1.292969 4.320312-1.292969 2.160157 0 4.285157.882812 5.828126 2.425781l14.25 14.257813c3.070312 3.070312 3.050781 8.089844-.042969 11.1875-1.605469 1.605468-3.613281 2.441406-5.742188 2.441406zm0 0" fill="#ffea92"/><path d="m228.035156 318.152344c-4.242187-1.238282-8.683594 1.199218-9.917968 5.441406l-5.429688 18.625-44.941406-128.195312c-1.460938-4.167969-6.027344-6.367188-10.195313-4.90625-4.171875 1.464843-6.367187 6.027343-4.902343 10.195312l45.078124 128.597656-19.964843-13.75c-3.648438-2.507812-8.625-1.582031-11.128907 2.050782-2.503906 3.640624-1.585937 8.621093 2.054688 11.128906l40.164062 27.652344c.140626.097656.292969.167968.4375.253906.191407.113281.375.238281.574219.335937.214844.101563.433594.179688.652344.265625.15625.058594.304687.128906.46875.183594.28125.085938.570313.148438.859375.203125.105469.019531.207031.054687.316406.070313.40625.0625.8125.101562 1.222656.101562h.007813c.070313 0 .140625 0 .214844-.003906.519531-.015625 1.023437-.09375 1.519531-.203125.125-.027344.242188-.066407.363281-.101563.472657-.128906.925781-.296875 1.359375-.503906.09375-.042969.1875-.078125.277344-.125.492188-.257812.949219-.578125 1.375-.933594.105469-.085937.203125-.179687.300781-.273437.429688-.398438.832031-.824219 1.167969-1.3125.003906-.003907.007812-.003907.007812-.007813h.003907c.273437-.398437.5-.824218.699219-1.269531.074218-.167969.128906-.335937.191406-.507813.0625-.171874.144531-.335937.195312-.519531l12.40625-42.574219c1.238282-4.242187-1.195312-8.683593-5.4375-9.917968zm0 0" fill="#ffea92"/><path d="m192.214844 394.257812c-4.242188-1.234374-8.683594 1.199219-9.917969 5.441407l-5.429687 18.625-44.9375-128.195313c-1.464844-4.167968-6.027344-6.367187-10.199219-4.90625-4.167969 1.464844-6.363281 6.027344-4.898438 10.199219l45.074219 128.589844-19.964844-13.746094c-3.644531-2.507813-8.621094-1.585937-11.125 2.050781-2.507812 3.640625-1.585937 8.621094 2.050782 11.125l40.164062 27.65625c.144531.097656.292969.167969.441406.253906.1875.113282.375.234376.570313.332032.21875.109375.441406.1875.664062.273437.152344.058594.300781.128907.453125.175781.289063.089844.582032.152344.875.210938.101563.019531.199219.050781.304688.066406.40625.0625.8125.097656 1.222656.097656h.007812.214844c.519532-.015624 1.023438-.09375 1.519532-.207031.125-.027343.242187-.0625.367187-.097656.46875-.128906.921875-.292969 1.355469-.503906.09375-.042969.1875-.078125.277344-.125.492187-.261719.949218-.578125 1.375-.933594.105468-.089844.203124-.183594.304687-.277344.425781-.394531.824219-.816406 1.15625-1.300781.003906-.003906.011719-.011719.015625-.015625.003906-.007813.007812-.015625.011719-.019531.269531-.390625.492187-.8125.6875-1.253906.078125-.167969.132812-.339844.195312-.507813.0625-.175781.144531-.335937.195313-.515625l12.40625-42.574219c1.238281-4.242187-1.195313-8.683593-5.4375-9.917969zm0 0" fill="#ffea92"/><g fill="#3762cc"><path d="m121.570312 191.304688c-38.632812 0-70.066406-31.441407-70.066406-70.09375 0-38.652344 31.433594-70.097657 70.066406-70.097657 38.636719 0 70.070313 31.445313 70.070313 70.09375 0 38.652344-31.429687 70.097657-70.070313 70.097657zm0-132.191407c-34.222656 0-62.066406 27.855469-62.066406 62.09375 0 34.242188 27.84375 62.097657 62.066406 62.097657 34.226563 0 62.070313-27.855469 62.070313-62.097657 0-34.238281-27.84375-62.09375-62.070313-62.09375zm0 0"/><path d="m44.296875 210.457031c-2.992187 0-5.855469-1.105469-8.066406-3.113281-2.410157-2.183594-3.78125-5.207031-3.863281-8.511719-.082032-3.382812 1.234374-6.6875 3.617187-9.070312l14.164063-14.167969c2.238281-2.238281 5.214843-3.472656 8.378906-3.472656 3.199218 0 6.210937 1.253906 8.480468 3.53125 2.355469 2.355468 3.589844 5.335937 3.597657 8.515625.007812 3.183593-1.222657 6.175781-3.464844 8.417969l-14.347656 14.351562c-2.269531 2.269531-5.289063 3.519531-8.496094 3.519531zm14.230469-30.335937c-1.042969 0-1.980469.390625-2.71875 1.128906l-14.164063 14.164062c-.839843.84375-1.304687 2.015626-1.277343 3.214844.027343 1.117188.457031 2.078125 1.238281 2.789063 1.542969 1.402343 4.050781 1.339843 5.53125-.140625l14.34375-14.351563c.730469-.726562 1.128906-1.703125 1.128906-2.742187-.003906-1.050782-.410156-2.027344-1.140625-2.761719-.894531-.894531-1.867188-1.300781-2.941406-1.300781zm0 0"/><path d="m121.570312 242.433594c-.386718 0-.78125-.015625-1.179687-.058594-6.066406-.578125-10.835937-5.921875-10.835937-12.164062v-20.015626c0-6.550781 5.367187-11.882812 11.957031-11.882812 3.238281 0 6.257812 1.210938 8.511719 3.410156 2.296874 2.25 3.5625 5.261719 3.5625 8.472656v20.222657c0 6.625-5.390626 12.015625-12.015626 12.015625zm-.058593-36.121094c-2.179688 0-3.957031 1.742188-3.957031 3.882812v20.011719c0 2.128907 1.625 4.015625 3.617187 4.207031.148437.015626.277344.019532.398437.019532 2.214844 0 4.015626-1.800782 4.015626-4.015625v-20.222657c0-1.058593-.402344-2.011718-1.15625-2.75-.769532-.75-1.75-1.132812-2.917969-1.132812zm0 0"/><path d="m198.757812 210.449219c-3.210937 0-6.222656-1.25-8.496093-3.519531l-14.300781-14.308594c-2.269532-2.269532-3.503907-5.285156-3.472657-8.496094.035157-3.152344 1.285157-6.121094 3.527344-8.355469 2.363281-2.367187 5.359375-3.609375 8.554687-3.609375 3.167969 0 6.144532 1.230469 8.382813 3.46875l14.113281 14.125c2.382813 2.382813 3.707032 5.691406 3.621094 9.070313-.082031 3.304687-1.457031 6.332031-3.867188 8.515625-2.210937 2.003906-5.074218 3.109375-8.0625 3.109375zm-14.1875-30.289063c-1.054687 0-2.042968.40625-2.78125 1.144532-.875.871093-1.292968 1.859374-1.300781 2.902343-.011719 1.054688.378907 2.007813 1.125 2.757813l14.304688 14.308594c1.476562 1.476562 3.984375 1.539062 5.527343.140624.785157-.710937 1.210938-1.675781 1.242188-2.789062.03125-1.199219-.4375-2.371094-1.28125-3.214844l-14.117188-14.125c-.734374-.738281-1.675781-1.125-2.71875-1.125zm0 0"/><path d="m230.730469 133.238281h-20.207031c-3.167969 0-6.140626-1.234375-8.378907-3.472656-2.261719-2.261719-3.503906-5.277344-3.5-8.496094 0-3.230469 1.210938-6.25 3.40625-8.5 2.25-2.296875 5.257813-3.566406 8.472657-3.566406h20c6.242187 0 11.585937 4.769531 12.164062 10.863281.320312 3.371094-.796875 6.738282-3.070312 9.238282-2.273438 2.5-5.511719 3.933593-8.886719 3.933593zm-20.207031-16.03125c-1.058594 0-2.007813.398438-2.75 1.15625-.746094.769531-1.128907 1.75-1.128907 2.914063 0 1.09375.402344 2.074218 1.160157 2.835937.738281.738281 1.675781 1.125 2.71875 1.125h20.207031c1.128906 0 2.210937-.480469 2.972656-1.316406.757813-.832031 1.132813-1.960937 1.023437-3.09375-.191406-1.996094-2.074218-3.621094-4.203124-3.621094zm0 0"/><path d="m184.582031 70.273438c-3.203125-.003907-6.210937-1.253907-8.476562-3.523438-2.335938-2.335938-3.578125-5.296875-3.605469-8.449219-.03125-3.210937 1.203125-6.226562 3.46875-8.496093l14.296875-14.296876c2.261719-2.269531 5.28125-3.519531 8.492187-3.519531 3.398438 0 6.652344 1.449219 8.933594 3.980469 4.277344 4.746094 4 12.089844-.632812 16.722656l-14.097656 14.109375c-2.242188 2.238281-5.21875 3.472657-8.378907 3.472657zm14.179688-30.285157c-1.074219 0-2.078125.414063-2.835938 1.171875l-14.300781 14.304688c-.746094.746094-1.136719 1.703125-1.125 2.761718.011719 1.042969.417969 2.015626 1.144531 2.746094 1.742188 1.746094 4.167969 1.65625 5.660157.167969l14.097656-14.109375c1.625-1.617188 1.773437-4.125.347656-5.710938-.769531-.847656-1.855469-1.332031-2.988281-1.332031zm0 0"/><path d="m121.632812 44.105469h-.007812c-6.65625 0-12.070312-5.328125-12.070312-11.878907v-20.210937c0-7.007813 6.007812-12.65625 13.179687-11.9570312 6.082031.5820312 10.851563 5.9257812 10.851563 12.1679682v20c0 3.214844-1.265626 6.21875-3.5625 8.464844-2.246094 2.199219-5.226563 3.414063-8.390626 3.414063zm-.0625-36.105469c-2.210937 0-4.015624 1.800781-4.015624 4.015625v20.207031c0 2.179688 1.789062 3.882813 4.070312 3.882813h.007812c1.058594 0 2.050782-.402344 2.792969-1.132813.757813-.738281 1.15625-1.6875 1.15625-2.75v-20c0-2.125-1.621093-4.011718-3.617187-4.203125-.132813-.011719-.261719-.019531-.394532-.019531zm0 0"/><path d="m32.621094 133.238281h-20.296875c-3.378907 0-6.621094-1.4375-8.890625-3.9375-2.269532-2.5-3.386719-5.867187-3.066406-9.238281.582031-6.089844 5.925781-10.859375 12.167968-10.859375h20.085938c3.214844 0 6.222656 1.265625 8.46875 3.566406 2.203125 2.253907 3.410156 5.238281 3.410156 8.402344 0 3.226563-1.210938 6.25-3.410156 8.5-2.242188 2.296875-5.25 3.566406-8.46875 3.566406zm-20.085938-16.03125c-2.125 0-4.011718 1.621094-4.203125 3.617188-.109375 1.132812.265625 2.265625 1.023438 3.101562.757812.835938 1.84375 1.3125 2.96875 1.3125h20.296875c1.058594 0 2.003906-.398437 2.742187-1.15625.753907-.773437 1.136719-1.75 1.132813-2.910156.003906-1.066406-.398438-2.0625-1.128906-2.808594-.738282-.757812-1.691407-1.160156-2.746094-1.160156h-20.085938zm0 0"/><path d="m58.519531 70.3125c-3.164062 0-6.140625-1.230469-8.378906-3.46875l-14.339844-14.34375c-2.554687-2.558594-3.816406-6.089844-3.457031-9.695312.359375-3.601563 2.308594-6.824219 5.351562-8.84375 1.933594-1.285157 4.195313-1.960938 6.53125-1.960938 3.21875 0 6.375 1.308594 8.660157 3.601562l14.246093 14.25c4.628907 4.628907 4.609376 12.183594-.039062 16.84375-2.324219 2.328126-5.371094 3.617188-8.574219 3.617188zm-14.292969-30.316406c-.761718 0-1.488281.21875-2.109374.628906-1.03125.683594-1.695313 1.769531-1.8125 2.972656-.121094 1.207032.296874 2.390625 1.152343 3.242188l14.339844 14.347656c1.507813 1.507812 3.988281 1.503906 5.628906-.144531 1.539063-1.542969 1.558594-4.023438.046875-5.535157l-14.246094-14.253906c-.785156-.789062-1.910156-1.257812-3-1.257812zm0 0"/><path d="m213.378906 380.40625c-.59375 0-1.207031-.046875-1.828125-.144531-.125-.019531-.4375-.082031-.558593-.117188-.355469-.066406-.78125-.160156-1.207032-.292969-.230468-.074218-.441406-.15625-.652344-.246093-.457031-.171875-.753906-.292969-1.042968-.4375-.246094-.121094-.496094-.265625-.746094-.417969-.347656-.195312-.550781-.316406-.75-.453125l-40.175781-27.660156c-2.640625-1.816407-4.414063-4.550781-4.996094-7.703125s.097656-6.34375 1.917969-8.984375c3.753906-5.445313 11.230468-6.828125 16.6875-3.078125l9.871094 6.792968-41.023438-117.023437c-1.0625-3.023437-.878906-6.28125.507812-9.171875 1.390626-2.886719 3.820313-5.0625 6.84375-6.121094 3.023438-1.0625 6.28125-.882812 9.171876.507813 2.890624 1.390625 5.0625 3.820312 6.125 6.84375l40.816406 116.425781 1.9375-6.652344c.894531-3.074218 2.9375-5.621094 5.75-7.164062 2.808594-1.539063 6.042968-1.894532 9.125-1 6.355468 1.851562 10.015625 8.527344 8.164062 14.878906l-12.40625 42.574219c-.074218.257812-.167968.496093-.265625.734375-.128906.363281-.210937.582031-.308593.796875-.328126.730469-.671876 1.347656-1.054688 1.910156-.03125.042969-.058594.085937-.09375.128906-.453125.632813-.996094 1.25-1.664062 1.867188-.152344.140625-.308594.285156-.476563.421875-.636719.535156-1.335937 1.007812-2.054687 1.386718-.097657.050782-.355469.171876-.457032.214844-.59375.289063-1.28125.542969-1.992187.738282-.222657.0625-.386719.109374-.558594.144531-.796875.179687-1.542969.277343-2.269531.296875l-.179688.003906c-.054687 0-.101562 0-.15625 0zm-.503906-8.035156c.152344.019531.304688.035156.453125.035156h.0625c.3125-.003906.558594-.042969.867187-.113281.023438-.003907.167969-.046875.191407-.054688.226562-.0625.449219-.144531.664062-.246093.054688-.027344.226563-.105469.285157-.128907.078124-.046875.308593-.203125.539062-.394531.007812-.007812.144531-.132812.152344-.140625.269531-.25.460937-.460937.59375-.648437.011718-.015626.023437-.035157.035156-.050782.132812-.207031.230469-.40625.320312-.601562.003907-.015625.078126-.230469.082032-.246094l.128906-.328125 12.386719-42.5c.300781-1.027344.179687-2.109375-.332031-3.042969-.515626-.9375-1.363282-1.617187-2.386719-1.917968-1.027344-.296876-2.109375-.179688-3.042969.335937-.9375.511719-1.617188 1.359375-1.914062 2.382813l-5.429688 18.628906c-.484375 1.667968-1.992188 2.835937-3.730469 2.878906-1.800781.042969-3.308593-1.035156-3.882812-2.675781l-44.941407-128.195313c-.355468-1.007812-1.078124-1.820312-2.042968-2.28125-.960938-.464844-2.050782-.527344-3.050782-.171875-1.011718.355469-1.824218 1.082031-2.285156 2.042969-.464844.964844-.527344 2.050781-.167968 3.058594l45.078124 128.59375c.574219 1.632812.03125 3.449218-1.347656 4.5-1.375 1.046875-3.269531 1.097656-4.695312.117187l-19.96875-13.75c-1.816406-1.25-4.3125-.789062-5.5625 1.03125-.609375.875-.835938 1.941407-.640625 2.988281.195312 1.050782.789062 1.964844 1.664062 2.570313l40.167969 27.652344c.046875.027343.183594.09375.230469.121093l.878906.410157c.09375.03125.238281.054687.382813.082031.050781.011719.167968.035156.257812.058594zm-.113281-.015625h.015625c-.003906 0-.011719 0-.015625 0zm0 0"/><path d="m177.558594 456.511719c-.601563 0-1.21875-.050781-1.835938-.148438-.125-.019531-.414062-.082031-.535156-.109375-.367188-.070312-.800781-.167968-1.234375-.304687-.210937-.066407-.425781-.152344-.640625-.242188-.441406-.167969-.738281-.285156-1.035156-.429687-.257813-.128906-.496094-.269532-.734375-.414063-.371094-.210937-.574219-.332031-.773438-.46875l-40.171875-27.65625c-2.640625-1.820312-4.414062-4.554687-4.996094-7.707031-.582031-3.152344.097657-6.34375 1.917969-8.984375 3.75-5.449219 11.234375-6.828125 16.6875-3.082031l9.867188 6.796875-41.019531-117.023438c-1.0625-3.023437-.878907-6.28125.507812-9.167969 1.390625-2.890624 3.820312-5.066406 6.84375-6.125 3.027344-1.0625 6.28125-.882812 9.175781.507813 2.882813 1.390625 5.058594 3.820313 6.121094 6.84375l40.8125 116.429687 1.941406-6.652343c1.851563-6.347657 8.535157-10.007813 14.875-8.164063h.003907c6.351562 1.851563 10.011718 8.527344 8.160156 14.878906l-12.40625 42.574219c-.074219.253907-.160156.484375-.253906.710938-.152344.410156-.234376.628906-.332032.847656-.292968.652344-.613281 1.234375-.96875 1.765625-.058594.089844-.121094.179688-.183594.269531-.457031.632813-.992187 1.234375-1.648437 1.839844-.203125.1875-.332031.304687-.472656.421875-.644531.539062-1.339844 1.007812-2.046875 1.382812-.101563.054688-.363282.175782-.464844.21875-.605469.289063-1.292969.542969-1.996094.734376-.21875.066406-.386718.113281-.554687.148437-.800781.175781-1.546875.273437-2.273438.296875h-.179687c-.054688.011719-.101563.011719-.15625.011719zm-.503906-8.039063c.15625.023438.304687.035156.453124.039063h.0625c.308594-.007813.554688-.042969.863282-.113281.027344-.007813.167968-.050782.195312-.058594.226563-.0625.453125-.144532.667969-.246094.054687-.027344.230469-.105469.285156-.128906.074219-.042969.296875-.199219.535157-.394532.003906-.003906.167968-.152343.171874-.15625.246094-.230468.4375-.441406.570313-.628906.007813-.011718.019531-.027344.027344-.039062.128906-.191406.230469-.398438.324219-.609375.007812-.019531.09375-.261719.097656-.277344l.125-.3125 12.382812-42.492187c.300782-1.027344.183594-2.109376-.332031-3.042969-.515625-.9375-1.359375-1.617188-2.382813-1.917969-2.117187-.613281-4.347656.605469-4.960937 2.71875l-5.429687 18.628906c-.484376 1.667969-1.992188 2.832032-3.730469 2.878906-1.839844.03125-3.304688-1.039062-3.882813-2.675781l-44.941406-128.195312c-.351562-1.007813-1.074219-1.820313-2.039062-2.285157-.960938-.460937-2.042969-.523437-3.054688-.167968-1.011719.355468-1.820312 1.082031-2.285156 2.042968-.460938.960938-.523438 2.046876-.167969 3.054688l45.078125 128.59375c.574219 1.636719.03125 3.449219-1.347656 4.503906-1.375 1.050782-3.269532 1.09375-4.695313.113282l-19.964843-13.746094c-1.820313-1.25-4.316407-.789063-5.566407 1.027344-.605469.878906-.832031 1.941406-.636719 2.992187.195313 1.050781.785157 1.960937 1.664063 2.566406l40.164063 27.65625c.046874.027344.1875.09375.230468.121094l.882813.410156c.097656.03125.246093.054688.390625.085938.046875.011719.15625.035156.246094.054687zm-.117188-.015625c.007812 0 .015625.003907.023438.003907-.007813 0-.015626-.003907-.023438-.003907zm0 0"/></g><path d="m283.367188 414.339844c0-4.378906-5.148438-7.929688-11.5-7.929688-6.351563 0-11.5 3.550782-11.5 7.929688s5.148437 7.925781 11.5 7.925781c6.351562 0 11.5-3.546875 11.5-7.925781zm0 0" fill="#eaa97d"/><path d="m233.3125 462.839844c0-4.378906-5.148438-7.929688-11.5-7.929688s-11.5 3.550782-11.5 7.929688 5.148438 7.925781 11.5 7.925781 11.5-3.546875 11.5-7.925781zm0 0" fill="#eaa97d"/></svg>