<?xml version="1.0" standalone="no"?>
<!DOCTYPE svg PUBLIC "-//W3C//DTD SVG 20010904//EN"
 "http://www.w3.org/TR/2001/REC-SVG-20010904/DTD/svg10.dtd">
<svg version="1.0" xmlns="http://www.w3.org/2000/svg"
 width="520.000000pt" height="520.000000pt" viewBox="0 0 520.000000 520.000000"
 preserveAspectRatio="xMidYMid meet">
<metadata>
Created by potrace 1.16, written by Peter Selinger 2001-2019
</metadata>
<g transform="translate(0.000000,520.000000) scale(0.100000,-0.100000)"
fill="#000000" stroke="none">
<path d="M2415 5124 c-16 -2 -73 -9 -125 -15 -442 -50 -908 -248 -1269 -539
-505 -407 -831 -990 -922 -1650 -18 -126 -18 -517 -1 -640 67 -476 252 -909
542 -1269 407 -505 987 -830 1650 -923 123 -17 514 -17 640 1 471 65 904 249
1265 538 504 402 835 993 926 1653 18 126 18 517 1 640 -67 474 -250 904 -539
1265 -395 496 -973 825 -1618 921 -95 14 -486 27 -550 18z m169 -817 c102
-104 155 -235 193 -477 26 -167 26 -1007 0 -1180 -40 -269 -108 -410 -212
-439 -100 -27 -175 56 -175 194 0 84 21 145 131 377 96 202 135 307 169 463
80 368 62 683 -53 910 -34 69 -97 165 -121 184 -9 7 -16 17 -16 22 0 22 27 4
84 -54z m-200 -1068 c60 -10 110 -20 112 -22 7 -7 -69 -209 -117 -307 l-51
-105 -17 25 c-29 44 -51 60 -82 60 -32 0 -71 -32 -116 -95 -27 -37 -42 -30
-93 41 -114 160 -185 172 -328 54 -58 -47 -81 -60 -108 -60 -30 0 -38 6 -71
57 -21 32 -50 64 -65 72 -24 14 -31 13 -83 -8 -31 -13 -57 -22 -59 -20 -9 12
17 237 30 257 28 43 78 56 184 46 159 -15 385 -11 485 9 152 29 188 29 379 -4z
m1341 11 c24 -7 59 -31 87 -59 56 -56 74 -111 83 -258 8 -120 3 -125 -75 -73
-48 32 -96 39 -121 18 -8 -7 -27 -32 -42 -55 -45 -70 -63 -57 -98 69 -24 86
-42 113 -82 128 -46 16 -72 -8 -131 -118 -57 -107 -77 -117 -117 -54 -18 28
-32 38 -57 40 -30 3 -34 0 -57 -50 -14 -29 -25 -58 -25 -65 0 -22 -22 -25 -56
-7 l-34 19 0 201 0 202 58 7 c31 3 122 19 202 35 80 16 161 31 180 33 59 8
243 -1 285 -13z m-237 -282 c5 -7 18 -40 27 -73 24 -90 44 -131 70 -145 40
-21 68 -9 105 48 38 58 56 63 102 30 17 -12 47 -27 67 -34 l36 -12 6 -264 c3
-144 9 -340 14 -434 l7 -172 -58 -17 c-66 -19 -209 -83 -252 -113 -22 -16 -53
-20 -177 -26 -82 -4 -181 -12 -220 -17 -38 -5 -176 -13 -305 -19 l-235 -9 -26
25 c-33 31 -49 91 -49 178 0 94 8 109 84 144 38 18 87 52 114 80 93 92 174
306 188 495 8 111 6 109 50 86 51 -25 71 -11 102 70 13 33 29 61 36 61 6 0 20
-15 30 -34 10 -19 32 -40 48 -47 43 -18 73 9 132 119 39 74 53 92 71 92 12 0
27 -6 33 -12z m-2052 -46 c6 -4 23 -26 37 -49 40 -64 65 -83 110 -83 48 0 65
9 143 76 102 86 155 83 226 -13 109 -146 131 -152 208 -62 64 73 83 74 118 8
22 -43 22 -49 9 -75 -8 -16 -30 -74 -48 -129 -30 -89 -34 -112 -34 -210 0
-102 2 -115 31 -176 35 -74 82 -125 146 -160 60 -33 83 -83 83 -175 -1 -56 -6
-82 -26 -120 l-25 -49 -435 0 c-366 0 -454 3 -565 19 l-131 18 -6 146 c-5 150
7 730 19 905 5 80 9 97 23 97 9 1 32 9 51 20 39 21 50 23 66 12z m2419 -1271
l60 -6 -3 -40 c-6 -78 -32 -148 -70 -186 -41 -40 -36 -39 -287 -59 -620 -49
-2115 -25 -2211 35 -25 16 -42 75 -51 181 l-6 77 24 -6 c111 -27 230 -32 804
-32 558 0 957 12 1130 34 73 10 527 11 610 2z"/>
</g>
</svg>
